# AST/ASF file generated using VICON BodyLanguage
# -----------------------------------------------
:version 1.10
:name VICON
:units
  mass 1.0
  length 0.45
  angle deg
:documentation
   .ast/.asf automatically generated from VICON data using
   VICON BodyBuilder and BodyLanguage model FoxedUp or BRILLIANT.MOD
:root
   order TX TY TZ RX RY RZ
   axis XYZ
   position 0 0 0  
   orientation 0 0 0 
:bonedata
  begin
     id 1 
     name lhipjoint
     direction 0.660183 -0.676772 0.325788 
     length 2.75133 
     axis 0 0 0  XYZ
  end
  begin
     id 2 
     name lfemur
     direction 0.34202 -0.939693 0  
     length 7.70317  
     axis 0 0 20  XYZ
    dof rx ry rz
    limits (-160.0 20.0)
           (-70.0 70.0)
           (-60.0 70.0)
  end
  begin
     id 3 
     name ltibia
     direction 0.342105 -0.939662 0   
     length 7.18701   
     axis 0 0 20   XYZ
    dof rx
    limits (-10.0 170.0)
  end
  begin
     id 4 
     name lfoot
     direction 0.14163 -0.389126 0.910232   
     length 2.41719   
     axis -90 7.62852e-016 20   XYZ
    dof rx rz
    limits (-45.0 90.0)
           (-70.0 20.0)
  end
  begin
     id 5 
     name ltoes
     direction 1.53533e-011 -4.21926e-011 1   
     length 1.18611   
     axis -90 7.62852e-016 20   XYZ
    dof rx
    limits (-90.0 20.0)
  end
  begin
     id 6 
     name rhipjoint
     direction -0.6658 -0.67229 0.323631   
     length 2.76968  
     axis 0 0 0  XYZ 
  end
  begin
     id 7 
     name rfemur
     direction -0.34202 -0.939693 0   
     length 7.92547   
     axis 0 0 -20   XYZ
    dof rx ry rz
    limits (-160.0 20.0)
           (-70.0 70.0)
           (-70.0 60.0)
  end
  begin
     id 8 
     name rtibia
     direction -0.342022 -0.939692 0   
     length 7.22641   
     axis 0 0 -20   XYZ
    dof rx
    limits (-10.0 170.0)
 end
 begin
     id 9 
     name rfoot
     direction -0.105675 -0.29034 0.951071   
     length 2.48149  
     axis -90 -7.62852e-016 -20   XYZ
    dof rx rz
    limits (-45.0 90.0)
           (-20.0 70.0)
  end
  begin
     id 10 
     name rtoes
     direction -1.5349e-011 -4.21859e-011 1   
     length 1.23343   
     axis -90 -7.62852e-016 -20   XYZ
    dof rx
    limits (-90.0 20.0)
  end
  begin
     id 11 
     name lowerback
     direction 0.0104173 0.993624 -0.112266   
     length 2.00527   
     axis 0 0 0   XYZ
    dof rx ry rz
    limits (-20.0 45.0)
           (-30.0 30.0)
           (-30.0 30.0)
  end
  begin
     id 12 
     name upperback
     direction 0.00733149 0.999856 -0.0152913   
     length 2.01385   
     axis 0 0 0   XYZ
    dof rx ry rz
    limits (-20.0 45.0)
           (-30.0 30.0)
           (-30.0 30.0)
  end
  begin
     id 13 
     name thorax
     direction 0.0026304 0.999318 0.036841   
     length 2.03734   
     axis 0 0 0   XYZ
    dof rx ry rz
    limits (-20.0 45.0)
           (-30.0 30.0)
           (-30.0 30.0)
  end
  begin
     id 14 
     name lowerneck
     direction 0.0293154 0.998757 0.0403082   
     length 1.65303   
     axis 0 0 0   XYZ
    dof rx ry rz
    limits (-20.0 45.0)
           (-30.0 30.0)
           (-30.0 30.0)
  end
  begin
     id 15 
     name upperneck
     direction -0.0376619 0.998184 -0.0470083   
     length 1.60926   
     axis 0 0 0   XYZ
    dof rx ry rz
    limits (-20.0 45.0)
           (-30.0 30.0)
           (-30.0 30.0)
  end
  begin
     id 16
     name head
     direction -0.0170133 0.999635 -0.0209778  
     length 1.73625  
     axis 0 0 0   XYZ
    dof rx ry rz
    limits (-20.0 45.0)
           (-30.0 30.0)
           (-30.0 30.0)
  end
  begin
     id 17 
     name lclavicle
     direction 0.919857 0.39181 -0.0186333  
     length 3.75313  
     axis 0 0 0   XYZ
    dof ry rz
    limits (-20.0 10.0)
           (0.0 20.0)
  end
  begin
     id 18 
     name lhumerus
     direction 1 -4.48988e-011 1.44029e-027   
     length 5.49313   
     axis 180 -30 -90   XYZ
    dof rx ry rz
    limits (-60.0 90.0)
           (-90.0 90.0)
           (-90.0 90.0)
  end
  begin
     id 19
     name lradius
     direction 1 -4.48924e-011 7.46281e-027   
     length 3.29037   
     axis 180 -30 -90   XYZ
    dof rx
    limits (-10.0 170.0)
  end
  begin
     id 20
     name lwrist
     direction 1 -4.48955e-011 2.19879e-026   
     length 1.64519   
     axis -1.34358e-014 90 90   XYZ
    dof ry
    limits (-180.0 0.0)
 end
  begin
     id 21 
     name lhand
     direction 1 -4.48978e-011 4.39747e-026   
     length 0.729656   
     axis -2.80598e-014 90 90   XYZ
    dof rx rz
    limits (-90.0 90.0)
           (-45.0 45.0)
  end
  begin
     id 22 
     name lfingers
     direction 1 -4.49071e-011 8.79411e-026   
     length 0.588268   
     axis -5.61193e-014 90 90   XYZ
    dof rx
    limits (0.0 90.0)
  end
  begin
     id 23
     name lthumb
     direction 0.707107 -6.34817e-011 0.707107   
     length 0.844638   
     axis -90 45 -9.86923e-015   XYZ
    dof rx rz
    limits (-45.0 45.0)
           (-45.0 45.0)
  end
  begin
     id 24 
     name rclavicle
     direction -0.919898 0.388279 0.0550233   
     length 3.7171  
     axis 0 0 0   XYZ 
    dof ry rz
    limits (-10.0 20.0)
           (-20.0 0.0)
  end
  begin
     id 25 
     name rhumerus
     direction -1 -4.48968e-011 9.98372e-028  
     length 5.23684   
     axis 180 30 90   XYZ
    dof rx ry rz
    limits (-90.0 60.0)
           (-90.0 90.0)
           (-90.0 90.0)
  end
  begin
     id 26 
     name rradius
     direction -1 -4.48956e-011 1.01023e-026   
     length 3.38251   
     axis 180 30 90   XYZ
    dof rx
    limits (-10.0 170.0)
  end
  begin
     id 27 
     name rwrist
     direction -1 -4.4892e-011 2.19886e-026   
     length 1.69126   
     axis -1.34358e-014 -90 -90   XYZ
    dof ry
    limits (-180.0 0.0)
  end
  begin
     id 28
     name rhand
     direction -1 -4.49024e-011 4.39727e-026   
     length 0.691454   
     axis -2.80598e-014 -90 -90   XYZ
    dof rx rz
    limits (-90.0 90.0)
           (-45.0 45.0)
  end
  begin
     id 29
     name rfingers
     direction -1 -4.49097e-011 8.79388e-026   
     length 0.557468   
     axis -5.61193e-014 -90 -90   XYZ
    dof rx
    limits (0.0 90.0)
  end
  begin
     id 30
     name rthumb
     direction -0.707107 -6.34938e-011 0.707107   
     length 0.800416   
     axis -90 -45 9.86923e-015   XYZ
    dof rx rz
    limits (-45.0 45.0)
           (-45.0 45.0)
  end
:hierarchy
  begin
    root lhipjoint rhipjoint lowerback
    lhipjoint lfemur
    lfemur ltibia
    ltibia lfoot
    lfoot ltoes
    rhipjoint rfemur
    rfemur rtibia
    rtibia rfoot
    rfoot rtoes
    lowerback upperback
    upperback thorax
    thorax lowerneck lclavicle rclavicle
    lowerneck upperneck
    upperneck head
    lclavicle lhumerus
    lhumerus lradius
    lradius lwrist
    lwrist lhand lthumb
    lhand lfingers
    rclavicle rhumerus
    rhumerus rradius
    rradius rwrist
    rwrist rhand rthumb
    rhand rfingers
  end

#!OML:ASF H:\BabyWalks\Project 1\Capture day 1\Session 1\baby.ASF
:FULLY-SPECIFIED
:DEGREES
95
root -36.2319 17.4612 -3.08101 -28.2799 78.2674 -31.4299
lowerback 17.8444 0.119844 -8.50312
upperback 7.04774 -0.920376 -2.47974
thorax -2.27229 -0.375425 2.34438
lowerneck 0.257099 2.79728 0.679178
upperneck -16.8717 5.31553 6.59361
head -5.27876 2.3718 1.6751
rclavicle -5.56597e-015 -6.83819e-014
rhumerus -46.6618 12.4397 -89.6898
rradius 45.6617
rwrist -1.2877
rhand -9.27268 -12.7829
rfingers 7.12502
rthumb 16.6839 -42.086
lclavicle -5.56597e-015 -6.83819e-014
lhumerus -41.1853 -0.141655 72.0619
lradius 56.1516
lwrist 4.74226
lhand -2.57161 10.446
lfingers 7.12502
lthumb 23.125 39.0781
rfemur -20.2856 20.3396 17.522
rtibia 50.7129
rfoot -17.8774 13.3877
rtoes -24.1473
lfemur -6.13338 -9.31098 -14.1429
ltibia 32.1677
lfoot -27.7426 -10.595
ltoes 7.78877
96
root -36.164 17.479 -3.06406 -28.5564 78.3545 -31.7774
lowerback 17.9596 0.0267039 -8.42976
upperback 7.01919 -1.04455 -2.45077
thorax -2.35287 -0.432903 2.35914
lowerneck 0.256227 2.83962 0.677928
upperneck -16.9059 5.3837 6.62752
head -5.29253 2.40319 1.68234
rclavicle 2.46493e-014 3.02153e-014
rhumerus -46.7441 12.362 -89.5796
rradius 45.5609
rwrist -1.26192
rhand -9.07958 -12.7965
rfingers 7.12502
rthumb 16.8698 -42.0837
lclavicle 2.46493e-014 3.02153e-014
lhumerus -41.3504 -0.289695 72.0798
lradius 56.4622
lwrist 4.88544
lhand -2.52491 10.3904
lfingers 7.12502
lthumb 23.1699 39.0169
rfemur -20.7384 20.7564 17.2365
rtibia 49.4619
rfoot -17.9462 13.5981
rtoes -24.2676
lfemur -5.62017 -9.2854 -14.1237
ltibia 31.4597
lfoot -27.6589 -10.6953
ltoes 8.09028
97
root -36.095 17.496 -3.04696 -28.872 78.4382 -32.1881
lowerback 18.0606 -0.0733682 -8.33175
upperback 6.98405 -1.17294 -2.41395
thorax -2.43364 -0.492496 2.36956
lowerneck 0.270715 2.88508 0.670453
upperneck -16.9622 5.46062 6.67308
head -5.31658 2.43786 1.69341
rclavicle -7.15625e-015 -1.59028e-015
rhumerus -46.8366 12.2575 -89.4498
rradius 45.4621
rwrist -1.25495
rhand -8.88154 -12.8227
rfingers 7.12502
rthumb 17.0605 -42.0936
lclavicle -7.15625e-015 -1.59028e-015
lhumerus -41.5293 -0.436482 72.108
lradius 56.7775
lwrist 5.03249
lhand -2.49604 10.3473
lfingers 7.12502
lthumb 23.1975 38.9703
rfemur -21.1998 21.1386 16.952
rtibia 48.1345
rfoot -18.0077 13.8139
rtoes -24.38
lfemur -5.14392 -9.25776 -14.0856
ltibia 30.7768
lfoot -27.5413 -10.8131
ltoes 8.43984
98
root -36.0249 17.5126 -3.02971 -29.1903 78.5173 -32.6228
lowerback 18.1493 -0.17711 -8.21767
upperback 6.9422 -1.30283 -2.37096
thorax -2.51572 -0.55289 2.37812
lowerneck 0.253514 2.92168 0.711328
upperneck -16.9943 5.51829 6.67834
head -5.32499 2.46371 1.68557
rclavicle 4.77083e-015 -3.02153e-014
rhumerus -46.9413 12.128 -89.3027
rradius 45.3686
rwrist -1.25405
rhand -8.6915 -12.8827
rfingers 7.12502
rthumb 17.2434 -42.1377
lclavicle 4.77083e-015 -3.02153e-014
lhumerus -41.7186 -0.583702 72.146
lradius 57.0869
lwrist 5.16683
lhand -2.47346 10.2543
lfingers 7.12502
lthumb 23.2192 38.8745
rfemur -21.6727 21.4884 16.6641
rtibia 46.7383
rfoot -18.0504 14.037
rtoes -24.4945
lfemur -4.69915 -9.22817 -14.0372
ltibia 30.1143
lfoot -27.3851 -10.9425
ltoes 8.82126
99
root -35.9537 17.5289 -3.01229 -29.4988 78.5949 -33.0675
lowerback 18.2183 -0.282991 -8.09608
upperback 6.8996 -1.43205 -2.31954
thorax -2.58867 -0.613582 2.39133
lowerneck 0.223047 2.95271 0.781617
upperneck -17.0261 5.56476 6.65418
head -5.32921 2.48434 1.66452
rclavicle -5.80451e-014 -4.77083e-015
rhumerus -47.0481 11.973 -89.1298
rradius 45.2756
rwrist -1.25265
rhand -8.51168 -12.9384
rfingers 7.12502
rthumb 17.4165 -42.1781
lclavicle -5.80451e-014 -4.77083e-015
lhumerus -41.9104 -0.7282 72.1994
lradius 57.3925
lwrist 5.28639
lhand -2.47686 10.202
lfingers 7.12502
lthumb 23.216 38.8227
rfemur -22.1522 21.8018 16.3724
rtibia 45.2791
rfoot -18.0768 14.2737
rtoes -24.5727
lfemur -4.28112 -9.19897 -13.983
ltibia 29.4655
lfoot -27.1892 -11.0828
ltoes 9.21554
100
root -35.8812 17.5449 -2.99457 -29.787 78.6754 -33.5046
lowerback 18.2727 -0.389389 -7.97357
upperback 6.85874 -1.55976 -2.26111
thorax -2.65234 -0.674133 2.41118
lowerneck 0.210789 2.98451 0.852713
upperneck -17.0899 5.61567 6.62643
head -5.34656 2.5063 1.64149
rclavicle 2.06736e-014 3.81667e-014
rhumerus -47.1538 11.7895 -88.9313
rradius 45.1799
rwrist -1.23989
rhand -8.34744 -12.9884
rfingers 7.12502
rthumb 17.5745 -42.214
lclavicle 2.06736e-014 3.81667e-014
lhumerus -42.1015 -0.867165 72.265
lradius 57.6895
lwrist 5.38101
lhand -2.4567 10.2259
lfingers 7.12502
lthumb 23.2353 38.8441
rfemur -22.631 22.0837 16.0753
rtibia 43.7638
rfoot -18.0624 14.5432
rtoes -24.5286
lfemur -3.87989 -9.17378 -13.9296
ltibia 28.8262
lfoot -26.9625 -11.2293
ltoes 9.58393
101
root -35.8075 17.5609 -2.97646 -30.0312 78.761 -33.9092
lowerback 18.3143 -0.496099 -7.85727
upperback 6.8192 -1.68713 -2.1969
thorax -2.70757 -0.735113 2.4405
lowerneck 0.179937 3.01023 0.959027
upperneck -17.1482 5.65274 6.56058
head -5.35668 2.52208 1.60184
rclavicle 1.27222e-014 1.59028e-015
rhumerus -47.2602 11.585 -88.7114
rradius 45.0826
rwrist -1.21285
rhand -8.20316 -13.0277
rfingers 7.12502
rthumb 17.7134 -42.2409
lclavicle 1.27222e-014 1.59028e-015
lhumerus -42.2902 -1.00155 72.3424
lradius 57.9746
lwrist 5.45684
lhand -2.43358 10.3778
lfingers 7.12502
lthumb 23.2575 38.9933
rfemur -23.1101 22.3392 15.7689
rtibia 42.1988
rfoot -18.01 14.8466
rtoes -24.3382
lfemur -3.49431 -9.14661 -13.8817
ltibia 28.1949
lfoot -26.7093 -11.3892
ltoes 9.94457
